# xmcd CD database file
#
# Track frame offsets:
#	150
#	10615
#	20697
#	32307
#	42605
#	57105
#	68160
#	79777
#	92229
#	106535
#	120017
#	133812
#	144150
#	158177
#	172422
#	186775
#	200897
#	216440
#	231512
#	243617
#
# Disc length: 3476 seconds
#
# Revision: 1
# Processed by: cddbd v1.5.1PL0 Copyright (c) Steve Scherf et al.
# Submitted via: CDex 1.51
#
DISCID=180d9214
DTITLE=ポール・モーリア - イエスタデイ 〜 ビッグ・スターの世界
DYEAR=1990
DGENRE=Easy Listening
TTITLE0=ミッシェル
TTITLE1=エリナ・リグビー
TTITLE2=イエスタデイ
TTITLE3=ガール
TTITLE4=涙の乗車券
TTITLE5=ペニー・レイン
TTITLE6=グッドバイ
TTITLE7=ゲット・バック
TTITLE8=ヘイ・ジュード
TTITLE9=レット・イット・ビー
TTITLE10=マイ・スィート・ロード
TTITLE11=レディ・マドンナ
TTITLE12=サウンド・オブ・サイレンス
TTITLE13=ミセス・ロビンソン
TTITLE14=コンドルは飛んで行く
TTITLE15=明日に架ける橋
TTITLE16=オンリー・イエスタデイ
TTITLE17=愛は夢の中に
TTITLE18=シング
TTITLE19=イエスタデイ・ワンス・モア
EXTD=YEAR: 1990. 8. 5
EXTT0=
EXTT1=
EXTT2=
EXTT3=
EXTT4=
EXTT5=
EXTT6=
EXTT7=
EXTT8=
EXTT9=
EXTT10=
EXTT11=
EXTT12=
EXTT13=
EXTT14=
EXTT15=
EXTT16=
EXTT17=
EXTT18=
EXTT19=
PLAYORDER=
